# xmcd
#
# Track frame offsets:
#	150
#	15705
#	33897
#	56295
#	77345
#	95205
#	112867
#	135112
#
# Disc length: 2074 seconds
#
# Revision: 0
# Processed by: cddbd v1.5.2PL0 Copyright (c) Steve Scherf et al.
# Submitted via: EasyCDDAExtractor 15.2.1.1
#
DISCID=4e081808
DTITLE=eysuhl™ 엄인호 - 엄인호 [1997 Donga vipcd241] 10년의 고독
DYEAR=1997
DGENRE=Korean
TTITLE0=그대 없는 거리
TTITLE1=거리에 서서
TTITLE2=LA 블루스
TTITLE3=하얀 나비
TTITLE4=달빛 아래 춤을 
TTITLE5=황혼
TTITLE6=비오는 어느 저녁
TTITLE7=아쉬움
EXTD=
EXTT0=
EXTT1=
EXTT2=
EXTT3=
EXTT4=
EXTT5=
EXTT6=
EXTT7=
PLAYORDER=
